<?xml version="1.0" encoding="UTF-8" standalone="no"?> <svg width="52" height="52" viewBox="0 0 52 52" fill="none" xmlns="http://www.w3.org/2000/svg">
<path d="M26.7046 35.9722C30.656 35.9722 33.0364 33.1475 33.0364 28.4661V26.1809C33.0364 21.4995 30.6719 18.6907 26.7681 18.6907C24.356 18.6907 22.4517 19.8174 21.8962 21.5789H21.6899V12.946H17.5005V35.75H21.6265V33.1792H21.8328C22.5151 34.9089 24.356 35.9722 26.7046 35.9722ZM25.3081 32.6396C23.1658 32.6396 21.6899 30.9575 21.6899 28.4819V26.3872C21.6899 23.7053 23.0547 22.0232 25.2605 22.0232C27.4822 22.0232 28.7517 23.7053 28.7517 26.6252V28.0852C28.7517 30.9734 27.498 32.6396 25.3081 32.6396ZM7.16333 36.0039C9.65479 36.0039 11.0671 34.8455 11.7336 33.6077H11.9241V35.75H15.8755V24.4353C15.8755 20.1665 12.7969 18.6431 9.02002 18.6431C4.4021 18.6431 2.43433 20.8647 2.2439 23.626H6.19531C6.40161 22.5786 7.21094 21.8328 8.9248 21.8328C10.6387 21.8328 11.7336 22.6421 11.7336 24.3401V25.8477H7.62354C3.71973 25.8477 1.625 27.8472 1.625 30.8623C1.625 34.0361 3.87842 36.0039 7.16333 36.0039ZM8.52808 32.9253C7.09985 32.9253 5.78271 32.1636 5.78271 30.5925C5.78271 29.3071 6.65552 28.3708 8.51221 28.3708H11.7336V30.1165C11.7336 31.751 10.2896 32.9253 8.52808 32.9253ZM37.4429 34.7677C35.5676 33.4673 34.5186 31.2341 34.5186 28.3232V26.2126C34.5186 21.5947 37.4226 18.6113 42.0088 18.6113C46.4045 18.6113 48.896 21.2773 48.9595 24.4829H45.1033C44.9763 23.3403 44.1829 21.9597 42.1199 21.9597C39.9299 21.9597 38.7239 23.6418 38.7239 26.2761V28.3074C38.7239 29.8279 39.1179 31.0185 39.8372 31.7748L37.4429 34.7677Z" fill="black"/>
<path d="M47.0227 30.5966C48.0739 31.4376 48.2443 32.9715 47.4034 34.0227L34.4034 50.2727C33.9702 50.8141 33.3271 51.1454 32.6348 51.1838C31.9425 51.2221 31.2667 50.9638 30.7764 50.4736L22.6514 42.3486C21.6995 41.3967 21.6995 39.8533 22.6514 38.9014C23.6033 37.9495 25.1467 37.9495 26.0986 38.9014L32.2979 45.1007L43.5966 30.9773C44.4376 29.9261 45.9715 29.7557 47.0227 30.5966Z" fill="black"/>
<path d="M21.8962 21.5789V21.8289H22.0795L22.1347 21.654L21.8962 21.5789ZM21.6899 21.5789H21.4399V21.8289H21.6899V21.5789ZM21.6899 12.946H21.9399V12.696H21.6899V12.946ZM17.5005 12.946V12.696H17.2505V12.946H17.5005ZM17.5005 35.75H17.2505V36H17.5005V35.75ZM21.6265 35.75V36H21.8765V35.75H21.6265ZM21.6265 33.1792V32.9292H21.3765V33.1792H21.6265ZM21.8328 33.1792L22.0653 33.0875L22.0029 32.9292H21.8328V33.1792ZM11.7336 33.6077V33.3577H11.5843L11.5135 33.4891L11.7336 33.6077ZM11.9241 33.6077H12.1741V33.3577H11.9241V33.6077ZM11.9241 35.75H11.6741V36H11.9241V35.75ZM15.8755 35.75V36H16.1255V35.75H15.8755ZM2.2439 23.626L1.99449 23.6088L1.97606 23.876H2.2439V23.626ZM6.19531 23.626V23.876H6.40087L6.4406 23.6743L6.19531 23.626ZM11.7336 25.8477V26.0977H11.9836V25.8477H11.7336ZM11.7336 28.3708H11.9836V28.1208H11.7336V28.3708ZM37.4429 34.7677L37.3005 34.9731L37.4923 35.1062L37.6382 34.9239L37.4429 34.7677ZM48.9595 24.4829V24.7329H49.2145L49.2094 24.478L48.9595 24.4829ZM45.1033 24.4829L44.8548 24.5105L44.8795 24.7329H45.1033V24.4829ZM39.8372 31.7748L40.0324 31.931L40.1687 31.7607L40.0184 31.6026L39.8372 31.7748ZM47.4034 34.0227L47.2081 33.8665L47.2081 33.8665L47.4034 34.0227ZM47.0227 30.5966L46.8665 30.7918L46.8665 30.7918L47.0227 30.5966ZM34.4034 50.2727L34.2081 50.1165L34.2081 50.1165L34.4034 50.2727ZM30.7764 50.4736L30.9532 50.2968L30.9532 50.2968L30.7764 50.4736ZM22.6514 42.3486L22.4747 42.5254L22.4747 42.5254L22.6514 42.3486ZM22.6514 38.9014L22.8282 39.0782L22.8282 39.0782L22.6514 38.9014ZM26.0986 38.9014L25.9218 39.0782L25.9218 39.0782L26.0986 38.9014ZM32.2979 45.1007L32.1211 45.2775C32.1714 45.3278 32.2407 45.3543 32.3117 45.3504C32.3827 45.3464 32.4487 45.3124 32.4931 45.2569L32.2979 45.1007ZM43.5966 30.9773L43.7919 31.1335L43.7919 31.1335L43.5966 30.9773ZM32.7864 28.4661C32.7864 30.7671 32.2013 32.5801 31.1612 33.8135C30.1255 35.0415 28.6163 35.7222 26.7046 35.7222V36.2222C28.7443 36.2222 30.4009 35.4905 31.5434 34.1358C32.6813 32.7865 33.2864 30.8464 33.2864 28.4661H32.7864ZM32.7864 26.1809V28.4661H33.2864V26.1809H32.7864ZM26.7681 18.9407C28.6554 18.9407 30.1487 19.617 31.1746 20.8409C32.2051 22.0703 32.7864 23.8795 32.7864 26.1809H33.2864C33.2864 23.8009 32.6854 21.865 31.5577 20.5197C30.4254 19.1688 28.7845 18.4407 26.7681 18.4407V18.9407ZM22.1347 21.654C22.646 20.0325 24.422 18.9407 26.7681 18.9407V18.4407C24.2899 18.4407 22.2574 19.6022 21.6578 21.5037L22.1347 21.654ZM21.6899 21.8289H21.8962V21.3289H21.6899V21.8289ZM21.4399 12.946V21.5789H21.9399V12.946H21.4399ZM17.5005 13.196H21.6899V12.696H17.5005V13.196ZM17.7505 35.75V12.946H17.2505V35.75H17.7505ZM21.6265 35.5H17.5005V36H21.6265V35.5ZM21.3765 33.1792V35.75H21.8765V33.1792H21.3765ZM21.8328 32.9292H21.6265V33.4292H21.8328V32.9292ZM26.7046 35.7222C24.4263 35.7222 22.6994 34.6948 22.0653 33.0875L21.6002 33.2709C22.3309 35.1231 24.2857 36.2222 26.7046 36.2222V35.7222ZM21.4399 28.4819C21.4399 29.7686 21.8238 30.8699 22.5073 31.6535C23.1931 32.4397 24.1672 32.8896 25.3081 32.8896V32.3896C24.3067 32.3896 23.4717 31.9985 22.884 31.3248C22.294 30.6484 21.9399 29.6709 21.9399 28.4819H21.4399ZM21.4399 26.3872V28.4819H21.9399V26.3872H21.4399ZM25.2605 21.7732C24.0884 21.7732 23.1223 22.2231 22.4544 23.0414C21.7911 23.8539 21.4399 25.0066 21.4399 26.3872H21.9399C21.9399 25.086 22.2711 24.0566 22.8417 23.3576C23.4076 22.6644 24.2268 22.2732 25.2605 22.2732V21.7732ZM29.0017 26.6252C29.0017 25.1337 28.6781 23.9226 28.0385 23.0783C27.3916 22.2243 26.4417 21.7732 25.2605 21.7732V22.2732C26.301 22.2732 27.0967 22.6631 27.64 23.3802C28.1905 24.107 28.5017 25.1968 28.5017 26.6252H29.0017ZM29.0017 28.0852V26.6252H28.5017V28.0852H29.0017ZM25.3081 32.8896C26.4739 32.8896 27.4118 32.4421 28.0506 31.5961C28.6821 30.7599 29.0017 29.5608 29.0017 28.0852H28.5017C28.5017 29.4978 28.1945 30.5759 27.6516 31.2948C27.1161 32.004 26.3323 32.3896 25.3081 32.3896V32.8896ZM11.5135 33.4891C10.891 34.6452 9.56371 35.7539 7.16333 35.7539V36.2539C9.74586 36.2539 11.2432 35.0457 11.9538 33.7262L11.5135 33.4891ZM11.9241 33.3577H11.7336V33.8577H11.9241V33.3577ZM12.1741 35.75V33.6077H11.6741V35.75H12.1741ZM15.8755 35.5H11.9241V36H15.8755V35.5ZM15.6255 24.4353V35.75H16.1255V24.4353H15.6255ZM9.02002 18.8931C10.881 18.8931 12.534 19.2694 13.7158 20.1397C14.8847 21.0005 15.6255 22.3686 15.6255 24.4353H16.1255C16.1255 22.2332 15.3269 20.7052 14.0123 19.7371C12.7106 18.7785 10.9358 18.3931 9.02002 18.3931V18.8931ZM2.4933 23.6432C2.58462 22.3192 3.0992 21.1419 4.13063 20.292C5.1655 19.4393 6.74903 18.8931 9.02002 18.8931V18.3931C6.67309 18.3931 4.96377 18.9577 3.81267 19.9061C2.65812 20.8574 2.09361 22.1716 1.99449 23.6088L2.4933 23.6432ZM6.19531 23.376H2.2439V23.876H6.19531V23.376ZM8.9248 21.5828C8.03359 21.5828 7.34642 21.7766 6.84898 22.1335C6.3475 22.4933 6.06356 23.0012 5.95003 23.5777L6.4406 23.6743C6.53336 23.2034 6.75723 22.8147 7.14046 22.5397C7.52773 22.2619 8.10215 22.0828 8.9248 22.0828V21.5828ZM11.9836 24.3401C11.9836 23.4343 11.6892 22.731 11.1338 22.2592C10.5851 21.793 9.81696 21.5828 8.9248 21.5828V22.0828C9.74651 22.0828 10.3827 22.2772 10.8101 22.6402C11.2306 22.9975 11.4836 23.5479 11.4836 24.3401H11.9836ZM11.9836 25.8477V24.3401H11.4836V25.8477H11.9836ZM7.62354 26.0977H11.7336V25.5977H7.62354V26.0977ZM1.875 30.8623C1.875 29.4159 2.37522 28.2356 3.32407 27.4132C4.27724 26.5871 5.71194 26.0977 7.62354 26.0977V25.5977C5.63133 25.5977 4.06675 26.1079 2.99661 27.0354C1.92214 27.9666 1.375 29.2936 1.375 30.8623H1.875ZM7.16333 35.7539C5.57007 35.7539 4.24987 35.2772 3.33083 34.4386C2.41432 33.6024 1.875 32.3868 1.875 30.8623H1.375C1.375 32.5116 1.96239 33.8669 2.99382 34.808C4.02272 35.7468 5.47168 36.2539 7.16333 36.2539V35.7539ZM5.53271 30.5925C5.53271 31.4571 5.89924 32.1134 6.46832 32.5469C7.02966 32.9745 7.77328 33.1753 8.52808 33.1753V32.6753C7.85465 32.6753 7.22559 32.4952 6.7713 32.1492C6.32476 31.809 6.03271 31.299 6.03271 30.5925H5.53271ZM8.51221 28.1208C7.5443 28.1208 6.79596 28.365 6.2864 28.8117C5.77294 29.2618 5.53271 29.8908 5.53271 30.5925H6.03271C6.03271 30.0089 6.22889 29.527 6.616 29.1877C7.00702 28.8449 7.62343 28.6208 8.51221 28.6208V28.1208ZM11.7336 28.1208H8.51221V28.6208H11.7336V28.1208ZM11.9836 30.1165V28.3708H11.4836V30.1165H11.9836ZM8.52808 33.1753C10.3899 33.1753 11.9836 31.9239 11.9836 30.1165H11.4836C11.4836 31.578 10.1892 32.6753 8.52808 32.6753V33.1753ZM34.2686 28.3232C34.2686 31.2952 35.3423 33.6153 37.3005 34.9731L37.5854 34.5623C35.7929 33.3193 34.7686 31.173 34.7686 28.3232H34.2686ZM34.2686 26.2126V28.3232H34.7686V26.2126H34.2686ZM42.0088 18.3613C39.6602 18.3613 37.7193 19.1265 36.3655 20.5051C35.0122 21.8832 34.2686 23.8508 34.2686 26.2126H34.7686C34.7686 23.9566 35.477 22.1235 36.7222 20.8554C37.967 19.5879 39.7712 18.8613 42.0088 18.8613V18.3613ZM49.2094 24.478C49.1764 22.8098 48.5104 21.2754 47.2764 20.1596C46.0427 19.0441 44.2578 18.3613 42.0088 18.3613V18.8613C44.1555 18.8613 45.8142 19.5116 46.9411 20.5305C48.0676 21.5491 48.6791 22.9504 48.7095 24.4879L49.2094 24.478ZM45.1033 24.7329H48.9595V24.2329H45.1033V24.7329ZM42.1199 22.2097C43.0906 22.2097 43.7375 22.5322 44.1579 22.9667C44.5835 23.4066 44.796 23.9816 44.8548 24.5105L45.3517 24.4553C45.2836 23.8417 45.0359 23.1551 44.5173 22.619C43.9934 22.0776 43.2121 21.7097 42.1199 21.7097V22.2097ZM38.9739 26.2761C38.9739 24.993 39.2681 23.9742 39.799 23.2822C40.3232 22.599 41.0962 22.2097 42.1199 22.2097V21.7097C40.9536 21.7097 40.0286 22.1615 39.4023 22.9779C38.7827 23.7855 38.4739 24.925 38.4739 26.2761H38.9739ZM38.9739 28.3074V26.2761H38.4739V28.3074H38.9739ZM40.0184 31.6026C39.3584 30.9087 38.9739 29.7899 38.9739 28.3074H38.4739C38.4739 29.8659 38.8773 31.1283 39.6561 31.9471L40.0184 31.6026ZM37.6382 34.9239L40.0324 31.931L39.642 31.6187L37.2477 34.6115L37.6382 34.9239ZM47.5986 34.1789C48.5258 33.0199 48.3379 31.3286 47.1789 30.4014L46.8665 30.7918C47.8099 31.5466 47.9629 32.9231 47.2081 33.8665L47.5986 34.1789ZM34.5986 50.4289L47.5986 34.1789L47.2081 33.8665L34.2081 50.1165L34.5986 50.4289ZM32.6486 51.4334C33.4119 51.3911 34.121 51.0258 34.5986 50.4289L34.2081 50.1165C33.8195 50.6024 33.2422 50.8997 32.621 50.9342L32.6486 51.4334ZM30.5996 50.6504C31.1402 51.1909 31.8853 51.4757 32.6486 51.4334L32.621 50.9342C31.9997 50.9686 31.3932 50.7368 30.9532 50.2968L30.5996 50.6504ZM22.4747 42.5254L30.5996 50.6504L30.9532 50.2968L22.8282 42.1718L22.4747 42.5254ZM22.4747 38.7247C21.4251 39.7742 21.4251 41.4758 22.4747 42.5254L22.8282 42.1718C21.9739 41.3175 21.9739 39.9325 22.8282 39.0782L22.4747 38.7247ZM26.2753 38.7247C25.2258 37.6751 23.5242 37.6751 22.4747 38.7247L22.8282 39.0782C23.6825 38.2239 25.0675 38.2239 25.9218 39.0782L26.2753 38.7247ZM32.4747 44.924L26.2753 38.7247L25.9218 39.0782L32.1211 45.2775L32.4747 44.924ZM43.4014 30.8211L32.1027 44.9446L32.4931 45.2569L43.7919 31.1335L43.4014 30.8211ZM47.1789 30.4014C46.0199 29.4742 44.3286 29.6621 43.4014 30.8211L43.7919 31.1335C44.5466 30.1901 45.9231 30.0371 46.8665 30.7918L47.1789 30.4014Z" fill="black"/>
</svg>
