<?xml version="1.0" encoding="UTF-8"?>
<svg id="Capa_2" data-name="Capa 2" xmlns="http://www.w3.org/2000/svg" viewBox="0 0 955.44 1090.06">
  <defs>
    <style>
      .cls-1 {
        fill: #1d1d1b;
      }
    </style>
  </defs>
  <g id="Capa_1-2" data-name="Capa 1">
    <path class="cls-1" d="m859.35,0h-409.41c-37.55,0-71.14,21.52-86.97,55.25l-106.87,21.44c-25.17,5.05-46.86,19.59-61.09,40.96-4.92,7.39-8.77,15.32-11.47,23.65L53.22,206.31c-22.94,11.44-40.06,31.16-48.2,55.52-8.15,24.36-6.33,50.41,5.11,73.35l335.82,673.22,13.76,27.58c11.45,22.96,31.16,40.09,55.51,48.24,4.26,1.42,8.67,2.56,13.14,3.39,7.03,1.63,14.29,2.45,21.58,2.45h409.41c52.98,0,96.09-43.11,96.09-96.09V96.09c0-52.98-43.11-96.09-96.09-96.09Zm45.09,96.09v897.88c0,24.86-20.23,45.09-45.09,45.09h-409.41c-3.06,0-6.1-.31-9.06-.91l-.9-.81h-2.41c-11.93-3.41-21.99-11.65-27.73-22.77-3.31-6.4-5-13.33-5-20.6V96.09c0-1.4.07-2.8.2-4.2.41-4.44,1.46-8.76,3.15-12.85,2.71-6.62,7.02-12.57,12.5-17.22,8.14-6.97,18.53-10.82,29.24-10.82h409.41c24.86,0,45.09,20.23,45.09,45.09Zm-550.59,13.01v684.03L230.8,179.76c-.68-3.39-.97-6.82-.87-10.24.22-8.38,2.83-16.54,7.54-23.61,6.67-10.02,16.85-16.85,28.66-19.22l87.72-17.6Zm-47.8,705.07L55.76,312.41c-11.09-22.24-2.02-49.37,20.22-60.47l106.6-53.18,123.46,615.4Z"/>
  </g>
</svg>