<?xml version="1.0" encoding="UTF-8" standalone="no"?> <svg id="Icon_backspace" data-name="Icon/backspace" xmlns="http://www.w3.org/2000/svg" xmlns:xlink="http://www.w3.org/1999/xlink" width="24" height="24" viewBox="0 0 24 24">
  <defs>
    <clipPath id="clip-path">
      <path id="_Icon_小olor" data-name=" Icon 小olor" d="M18.14,16H8.37a2.992,2.992,0,0,1-2.019-.781L.327,9.74A1,1,0,0,1,.221,8.373L6.246.894A.889.889,0,0,1,6.351.781,2.992,2.992,0,0,1,8.37,0h9.77A1.841,1.841,0,0,1,20,1.818V14.182A1.841,1.841,0,0,1,18.14,16ZM8.37,2a1,1,0,0,0-.625.22L2.369,8.894,7.7,13.739A1,1,0,0,0,8.37,14H18V2ZM14,11a.993.993,0,0,1-.707-.292L12,9.414l-1.293,1.293A1,1,0,0,1,9.292,9.293L10.586,8,9.292,6.707a1,1,0,1,1,1.414-1.414L12,6.586l1.293-1.293a1,1,0,0,1,1.414,1.414L13.414,8l1.293,1.293A1,1,0,0,1,14,11Z" transform="translate(2 4)"/>
    </clipPath>
  </defs>
  <g id="Group_142" data-name="Group 142">
    <path id="_Icon_小olor-2" data-name=" Icon 小olor" d="M18.14,16H8.37a2.992,2.992,0,0,1-2.019-.781L.327,9.74A1,1,0,0,1,.221,8.373L6.246.894A.889.889,0,0,1,6.351.781,2.992,2.992,0,0,1,8.37,0h9.77A1.841,1.841,0,0,1,20,1.818V14.182A1.841,1.841,0,0,1,18.14,16ZM8.37,2a1,1,0,0,0-.625.22L2.369,8.894,7.7,13.739A1,1,0,0,0,8.37,14H18V2ZM14,11a.993.993,0,0,1-.707-.292L12,9.414l-1.293,1.293A1,1,0,0,1,9.292,9.293L10.586,8,9.292,6.707a1,1,0,1,1,1.414-1.414L12,6.586l1.293-1.293a1,1,0,0,1,1.414,1.414L13.414,8l1.293,1.293A1,1,0,0,1,14,11Z" transform="translate(2 4)"/>
  </g>
</svg>
