<?xml version="1.0" encoding="UTF-8" standalone="no"?> <svg xmlns="http://www.w3.org/2000/svg" viewBox="0 0 64 64"><g id="Layer_31" data-name="Layer 31"><path d="M51.44,26.46a1.51,1.51,0,0,0-1.4-1H40L49.8,4.64A1.5,1.5,0,0,0,48.44,2.5H24.79a1.51,1.51,0,0,0-1.36.86l-10.82,23A1.51,1.51,0,0,0,14,28.5h6.49L12.51,59.63A1.5,1.5,0,0,0,15,61.11l36.07-33A1.51,1.51,0,0,0,51.44,26.46Zm-34.78,29,7.17-28.13a1.51,1.51,0,0,0-1.45-1.87H16.33l9.41-20H46.08L36.26,26.36a1.5,1.5,0,0,0,0,1.31,1.48,1.48,0,0,0,1.33.83h8.55Z"/></g></svg>