<?xml version="1.0" encoding="UTF-8"?>
<svg id="Capa_2" data-name="Capa 2" xmlns="http://www.w3.org/2000/svg" viewBox="0 0 2269.21 2319.18">
  <defs>
    <style>
      .cls-1 {
        fill: #1d1d1b;
      }
    </style>
  </defs>
  <g id="Capa_1-2" data-name="Capa 1">
    <path class="cls-1" d="m2250.07,2207.61l-794.68-794.68c67.28-72.16,120.77-154.61,159.21-245.49,43.83-103.64,66.06-213.69,66.06-327.11s-22.23-223.48-66.06-327.11c-42.33-100.07-102.91-189.93-180.07-267.09s-167.02-137.74-267.09-180.07C1063.8,22.23,953.75,0,840.33,0s-223.48,22.23-327.11,66.06c-100.07,42.33-189.93,102.91-267.09,180.07s-137.74,167.02-180.07,267.09C22.23,616.85,0,726.91,0,840.33s22.23,223.48,66.06,327.11c42.33,100.07,102.91,189.93,180.07,267.09,77.16,77.16,167.02,137.74,267.09,180.07,103.64,43.83,213.69,66.06,327.11,66.06s223.47-22.23,327.11-66.06c69.02-29.19,133.18-67.07,191.67-113.08l798.53,798.53c25.52,25.52,66.91,25.52,92.43,0h0c25.52-25.53,25.52-66.91,0-92.43Zm-1409.74-638.95c-401.6,0-728.33-326.73-728.33-728.33S438.73,112,840.33,112s728.33,326.73,728.33,728.33-326.73,728.33-728.33,728.33Z"/>
  </g>
</svg>