<?xml version="1.0" encoding="UTF-8"?>
<svg id="Capa_2" data-name="Capa 2" xmlns="http://www.w3.org/2000/svg" viewBox="0 0 1597.84 1657.78">
  <defs>
    <style>
      .cls-1 {
        opacity: .82;
      }

      .cls-1, .cls-2 {
        fill: #1a1a1a;
      }
    </style>
  </defs>
  <g id="Capa_1-2" data-name="Capa 1">
    <g>
      <path class="cls-1" d="m192,207.51c0-45.37,14.71-85.8,39.07-118.65C112.63,82.68,0,170.44,0,296.03v1065.73c0,125.59,112.63,213.34,231.07,207.17-24.36-32.86-39.07-73.28-39.07-118.65V207.51Z"/>
      <path class="cls-1" d="m1449.79,576.39L526.55,31.67C421.46-30.33,294.01,3.96,231.07,88.85c34.9,1.82,70.31,11.77,103.49,31.34l903.15,532.87c137.46,81.1,137.46,270.56,0,351.66l-903.15,532.86c-33.18,19.57-68.58,29.52-103.49,31.34,62.95,84.89,190.4,119.18,295.48,57.18l923.25-544.72c197.39-116.46,197.39-388.53,0-504.99Z"/>
      <path class="cls-2" d="m1237.71,1004.72c137.46-81.1,137.46-270.56,0-351.66L334.55,120.19c-33.18-19.57-68.58-29.52-103.49-31.34-24.36,32.86-39.07,73.28-39.07,118.65v1242.77c0,45.37,14.71,85.8,39.07,118.65,34.9-1.82,70.31-11.77,103.49-31.34l903.15-532.86Z"/>
    </g>
  </g>
</svg>