<?xml version="1.0" encoding="UTF-8"?>
<svg id="Capa_2" data-name="Capa 2" xmlns="http://www.w3.org/2000/svg" viewBox="0 0 1245.15 1898.36">
  <defs>
    <style>
      .cls-1 {
        fill: #1d1d1b;
      }
    </style>
  </defs>
  <g id="Capa_1-2" data-name="Capa 1">
    <path class="cls-1" d="m1233.07,778.18c-16.64-29.56-46.82-47.2-80.74-47.2h-454.21V42.89c0-19.08-12.28-35.57-30.55-41.05-18.28-5.48-37.6,1.55-48.09,17.48L15.28,937.02c-18.76,28.5-20.36,64.87-4.18,94.91,16.19,30.04,47.44,48.7,81.56,48.7h449.13v774.9c0,19.14,12.88,36.11,31.31,41.27,3.74,1.04,7.59,1.57,11.47,1.57h0c14.93,0,29-7.9,36.71-20.62l610.25-1006.05c17.59-29,18.16-63.96,1.52-93.51ZM92.67,999.14c-5.51,0-8.39-3.19-9.84-5.87-1.44-2.68-2.53-6.84.5-11.45L616.64,171.81v640.66h535.68c5.4,0,8.28,3.1,9.74,5.69,1.46,2.6,2.62,6.66-.18,11.28l-538.59,887.92v-718.21H92.67Z"/>
  </g>
</svg>