<?xml version="1.0" encoding="UTF-8"?>
<svg id="Capa_2" data-name="Capa 2" xmlns="http://www.w3.org/2000/svg" viewBox="0 0 34.21 23.19">
  <g id="Capa_1-2" data-name="Capa 1">
    <g>
      <path d="m33.64,20.9l-4.11-2.68,2.17-9.6c0,.23,0,.55,0,.97,0,.42,0,.74,0,.98v8.07h2.32V6.7h-3.59l-2.16,9.38-2.17-9.38h-3.63v6.9L1.93.2C1.36-.17.58-.01.2.57-.17,1.15-.01,1.92.57,2.3l6.74,4.4h-.06v7.33c0,.82-.1,1.42-.29,1.8-.3.67-.95,1-1.96,1s-1.67-.33-1.97-1c-.19-.38-.29-.98-.29-1.8v-7.33H.2v7.34c0,1.27.2,2.26.59,2.96.74,1.3,2.14,1.94,4.2,1.94s3.46-.65,4.2-1.94c.39-.71.59-1.69.59-2.96v-5.72l1.55,1.01v9.31h2.48v-5.33h3.62l1.02.66v4.66h2.48v-3.05l1.53,1v2.05h2.32v-.53l7.49,4.89c.58.38,1.35.21,1.73-.36.38-.58.21-1.35-.36-1.73ZM13.81,11.25v-.31l.47.31h-.47Zm10.96-1.66c0-.42,0-.74,0-.97l1.7,7.6-1.69-1.1v-4.55c0-.23,0-.56,0-.98Z"/>
      <polygon points="20.93 10.61 20.93 6.7 18.45 6.7 18.45 9 20.93 10.61"/>
    </g>
  </g>
</svg>