<?xml version="1.0" encoding="UTF-8"?>
<svg id="Capa_2" data-name="Capa 2" xmlns="http://www.w3.org/2000/svg" viewBox="0 0 1216.65 1216.65">
  <defs>
    <style>
      .cls-1 {
        fill: #1d1d1b;
      }
    </style>
  </defs>
  <g id="Capa_1-2" data-name="Capa 1">
    <g>
      <path class="cls-1" d="m1149.04,67.6C1105.45,24.01,1047.48,0,985.83,0H230.82c-61.65,0-119.62,24.01-163.21,67.6S0,169.16,0,230.82v755.01c0,61.65,24.01,119.62,67.6,163.21,43.6,43.6,101.56,67.6,163.21,67.6h755.01c61.65,0,119.62-24.01,163.21-67.6,43.6-43.6,67.6-101.56,67.6-163.21V230.82c0-61.65-24.01-119.62-67.6-163.21Zm8.6,918.22c0,94.74-77.08,171.82-171.82,171.82H230.82c-94.74,0-171.82-77.08-171.82-171.82V230.82c0-94.74,77.08-171.82,171.82-171.82h755.01c94.74,0,171.82,77.08,171.82,171.82v755.01Z"/>
      <rect class="cls-1" x="246.21" y="728.06" width="724.24" height="60.35" rx="30.18" ry="30.18"/>
      <rect class="cls-1" x="371.68" y="880" width="473.29" height="60.35" rx="30.18" ry="30.18"/>
    </g>
  </g>
</svg>