<?xml version="1.0" encoding="UTF-8" standalone="no"?> <svg id="Layer_1" data-name="Layer 1" xmlns="http://www.w3.org/2000/svg" viewBox="0 0 48 48"><path d="M39,28H35V26a1,1,0,0,0-2,0v2H29a1,1,0,0,0,0,2h7.42a6.96,6.96,0,0,1-2.426,4.348A6.974,6.974,0,0,1,32.171,32a1,1,0,1,0-1.806.857,8.873,8.873,0,0,0,1.875,2.573A7.128,7.128,0,0,1,29.429,36a.97.97,0,0,0-.965,1A1.032,1.032,0,0,0,29.5,38a8.932,8.932,0,0,0,4.52-1.23A9.127,9.127,0,0,0,38.571,38a.97.97,0,0,0,.965-1A1.032,1.032,0,0,0,38.5,36a6.949,6.949,0,0,1-2.72-.566A8.973,8.973,0,0,0,38.441,30H39a1,1,0,0,0,0-2Z"/><path d="M14,9.5a1,1,0,0,0-.91.586l-5,11a1,1,0,0,0,1.82.828L11.689,18h4.622l1.779,3.914a1,1,0,0,0,1.82-.828l-5-11A1,1,0,0,0,14,9.5ZM12.6,16,14,12.917,15.4,16Z"/><path d="M41,20H27a5.006,5.006,0,0,0-5,5V39a5.006,5.006,0,0,0,5,5H41a5.006,5.006,0,0,0,5-5V25A5.006,5.006,0,0,0,41,20Zm3,19a3,3,0,0,1-3,3H27a3,3,0,0,1-3-3V25a3,3,0,0,1,3-3H41a3,3,0,0,1,3,3Z"/><path d="M24,9v8.25a1,1,0,0,0,2,0V9a5.006,5.006,0,0,0-5-5H7A5.006,5.006,0,0,0,2,9V23a5.006,5.006,0,0,0,5,5H19a1,1,0,0,0,0-2H7a3,3,0,0,1-3-3V9A3,3,0,0,1,7,6H21A3,3,0,0,1,24,9Z"/><path d="M32.293,12.707a1,1,0,0,0,1.414-1.414L33.414,11H38a1,1,0,0,1,1,1v3a1,1,0,0,0,2,0V12a3,3,0,0,0-3-3H33.414l.293-.293a1,1,0,1,0-1.414-1.414l-2,2a1,1,0,0,0,0,1.414Z"/><path d="M15.707,35.293a1,1,0,0,0-1.414,1.414l.293.293H10a1,1,0,0,1-1-1V33a1,1,0,0,0-2,0v3a3,3,0,0,0,3,3h4.586l-.293.293a1,1,0,1,0,1.414,1.414l2-2a1,1,0,0,0,0-1.414Z"/></svg>